<svg id="レイヤー_1" data-name="レイヤー 1" xmlns="http://www.w3.org/2000/svg" viewBox="0 0 3248.5 1700.79"><title>icon-picture</title><rect width="3248.5" height="1700.79" style="fill:#cd7378"/><polygon points="1512.62 1700.79 1056.51 1240.34 2221.54 1240.34 2221.54 488.41 3248.5 1517.91 3248.5 1700.79 1512.62 1700.79" style="fill:#b9676c"/><rect x="1027.19" y="460.4" width="1194.35" height="779.94" style="fill:#fff"/><rect x="1109.74" y="535.71" width="1029.25" height="629.32" style="fill:#b1d3c2"/><circle cx="1529.56" cy="696.92" r="83.08" style="fill:#e6ebc4"/><path d="M1109.74,1165c322-391.54,263.44-395.78,587.93,0Z" style="fill:#7fba93"/><path d="M1455.28,1165c430.05-526.75,341.86-532.62,683.71-116.26V1165Z" style="fill:#7fba93"/><path d="M1575.75,1014.89c-35.08,44.27-74.85,94.26-120.47,150.14h242.39C1649.39,1106.14,1609.59,1056.11,1575.75,1014.89Z" style="fill:#63af7c"/><rect x="1638.17" y="460.4" width="583.37" height="779.94" style="fill:#040000;opacity:0.12"/></svg>